<svg width="24" height="25" viewBox="0 0 24 25" fill="none" xmlns="http://www.w3.org/2000/svg">
<g clip-path="url(#clip0_1869_2610)">
<path d="M24 12.8105C24 6.18313 18.6274 0.810547 12 0.810547C5.37258 0.810547 0 6.18313 0 12.8105C0 18.8 4.3882 23.7645 10.125 24.6648V16.2793H7.07812V12.8105H10.125V10.1668C10.125 7.1593 11.9166 5.49805 14.6576 5.49805C15.9701 5.49805 17.3438 5.73242 17.3438 5.73242V8.68555H15.8306C14.34 8.68555 13.875 9.61063 13.875 10.5605V12.8105H17.2031L16.6711 16.2793H13.875V24.6648C19.6118 23.7645 24 18.8 24 12.8105Z" fill="#7B869F"/>
</g>
<defs>
<clipPath id="clip0_1869_2610">
<rect width="24" height="24" fill="white" transform="translate(0 0.810547)"/>
</clipPath>
</defs>
</svg>
