<svg width="24" height="25" viewBox="0 0 24 25" fill="none" xmlns="http://www.w3.org/2000/svg">
<g clip-path="url(#clip0_607_1724)">
<path d="M24 12.0684C24 5.44094 18.6274 0.0683594 12 0.0683594C5.37258 0.0683594 0 5.44094 0 12.0684C0 18.0578 4.3882 23.0223 10.125 23.9226V15.5371H7.07812V12.0684H10.125V9.42461C10.125 6.41711 11.9166 4.75586 14.6576 4.75586C15.9701 4.75586 17.3438 4.99023 17.3438 4.99023V7.94336H15.8306C14.34 7.94336 13.875 8.86844 13.875 9.81836V12.0684H17.2031L16.6711 15.5371H13.875V23.9226C19.6118 23.0223 24 18.0578 24 12.0684Z" fill="#A5ADC0"/>
</g>
<defs>
<clipPath id="clip0_607_1724">
<rect width="24" height="24" fill="white" transform="translate(0 0.0683594)"/>
</clipPath>
</defs>
</svg>
