<svg width="24" height="25" viewBox="0 0 24 25" fill="none" xmlns="http://www.w3.org/2000/svg">
<path d="M6.17625 0.810547H17.8205C19.0716 0.841953 20.3114 1.24836 21.3295 1.9782C22.5614 2.84961 23.467 4.17336 23.8195 5.64195C23.9222 6.04695 23.9681 6.46367 24 6.87945V18.6296C23.9639 20.3059 23.2284 21.9502 22.0008 23.0921C20.8828 24.1543 19.365 24.774 17.8242 24.8105H6.18141C4.88437 24.7768 3.6 24.3399 2.56078 23.5613C1.35563 22.6707 0.481875 21.3413 0.156094 19.8774C0.0684375 19.5052 0.0295312 19.1246 0 18.744V6.89445C0.0267188 6.51008 0.0670312 6.12617 0.154219 5.7507C0.453281 4.40492 1.21266 3.1693 2.27203 2.28758C3.35625 1.3707 4.75734 0.845703 6.17625 0.810547ZM7.90031 5.06398C6.98156 5.17977 6.10781 5.61148 5.45578 6.2682C4.80797 6.9118 4.37859 7.77102 4.25766 8.67617C4.2075 9.02117 4.22016 9.37086 4.21875 9.7182C4.21875 11.9373 4.21828 14.1559 4.21922 16.3749C4.21641 17.3241 4.54922 18.2682 5.145 19.007C5.79328 19.8198 6.74953 20.3804 7.77797 20.5388C8.18062 20.6077 8.59078 20.5895 8.99719 20.5918C11.1858 20.5913 13.3744 20.5923 15.5625 20.5913C16.5581 20.5937 17.5495 20.2285 18.3028 19.577C19.0594 18.9329 19.5778 18.0137 19.7283 17.0312C19.7972 16.6276 19.7789 16.217 19.7812 15.8096C19.7808 13.622 19.7817 11.4338 19.7808 9.24617C19.7836 8.21914 19.3927 7.19773 18.7041 6.43602C18.0534 5.70523 17.1417 5.21164 16.1728 5.07383C15.8002 5.0157 15.4223 5.03117 15.0469 5.0293C12.9994 5.0293 10.9519 5.0293 8.90438 5.0293C8.56969 5.0307 8.23312 5.01898 7.90031 5.06398Z" fill="#7B869F"/>
<path d="M7.99394 6.47084C8.15613 6.44412 8.32066 6.43568 8.48473 6.43568C10.8439 6.43615 13.2036 6.43521 15.5629 6.43568C16.2557 6.43474 16.9461 6.70146 17.4552 7.17209C18.0341 7.69474 18.3768 8.46771 18.3744 9.24771C18.3749 11.6233 18.3749 13.999 18.3744 16.3751C18.3749 17.0557 18.1157 17.7316 17.6624 18.2393C17.1393 18.8341 16.355 19.1876 15.5629 19.1852C13.1863 19.1857 10.8102 19.1857 8.4341 19.1852C7.65363 19.1866 6.88207 18.8421 6.35941 18.2632C5.89207 17.7541 5.62395 17.0674 5.62535 16.376C5.62488 13.9994 5.62488 11.6229 5.62535 9.24631C5.62301 8.5099 5.92816 7.77959 6.45082 7.26209C6.8652 6.84443 7.4141 6.56599 7.99394 6.47084ZM15.9018 8.08896C15.5061 8.15412 15.2282 8.59896 15.3594 8.98146C15.4588 9.34053 15.876 9.57068 16.2318 9.45115C16.5922 9.35271 16.8229 8.93365 16.7024 8.5774C16.6096 8.24318 16.2421 8.01724 15.9018 8.08896ZM11.5077 9.32975C10.1938 9.50131 9.03504 10.4866 8.64738 11.7522C8.38957 12.5618 8.43973 13.4651 8.78848 14.2399C9.13301 15.0152 9.76816 15.6565 10.5407 16.0071C11.1679 16.2982 11.8827 16.3915 12.5643 16.2799C13.3743 16.151 14.1318 15.7244 14.6638 15.1005C15.5352 14.1129 15.7625 12.619 15.2263 11.4162C14.9361 10.744 14.4299 10.1679 13.8008 9.79287C13.1197 9.38084 12.2952 9.21771 11.5077 9.32975Z" fill="#7B869F"/>
<path d="M11.6026 10.7411C12.1342 10.638 12.7056 10.7463 13.157 11.0481C13.6473 11.3678 13.9937 11.9008 14.0818 12.4806C14.17 13.0263 14.0326 13.6052 13.7045 14.051C13.3792 14.501 12.8701 14.815 12.3198 14.8942C11.6453 15.0025 10.9271 14.7546 10.4635 14.2535C10.0032 13.7716 9.7998 13.0633 9.93011 12.4103C10.0792 11.5816 10.7739 10.8892 11.6026 10.7411Z" fill="#7B869F"/>
</svg>
