<svg width="16" height="14" viewBox="0 0 16 14" fill="none" xmlns="http://www.w3.org/2000/svg">
<path d="M9.73366 5.33359H14.0003C14.3539 5.33359 14.6931 5.47407 14.9431 5.72412C15.1932 5.97417 15.3337 6.3133 15.3337 6.66693V8.06959C15.3338 8.24383 15.2999 8.41642 15.2337 8.57759L13.1703 13.5876C13.12 13.7097 13.0345 13.8142 12.9247 13.8876C12.8149 13.9611 12.6858 14.0003 12.5537 14.0003H1.33366C1.15685 14.0003 0.987278 13.93 0.862254 13.805C0.73723 13.68 0.666992 13.5104 0.666992 13.3336V6.66693C0.666992 6.49012 0.73723 6.32055 0.862254 6.19552C0.987278 6.0705 1.15685 6.00026 1.33366 6.00026H3.65499C3.76172 6.00029 3.8669 5.97469 3.96168 5.92562C4.05646 5.87654 4.13807 5.80543 4.19966 5.71826L7.83499 0.566928C7.88095 0.501803 7.94872 0.455302 8.02602 0.435855C8.10331 0.416408 8.18502 0.425303 8.25632 0.460928L9.46566 1.06559C9.80599 1.2357 10.0779 1.51714 10.2361 1.86314C10.3944 2.20914 10.4295 2.59888 10.3357 2.96759L9.73366 5.33359ZM4.66699 7.05893V12.6669H12.107L14.0003 8.06959V6.66693H9.73366C9.53059 6.6669 9.33021 6.62049 9.14781 6.53123C8.96541 6.44198 8.80581 6.31224 8.68117 6.15192C8.55654 5.9916 8.47018 5.80492 8.42867 5.60614C8.38716 5.40736 8.3916 5.20173 8.44166 5.00493L9.04366 2.63959C9.0625 2.56581 9.05551 2.4878 9.02385 2.41855C8.9922 2.34929 8.93778 2.29296 8.86966 2.25893L8.42899 2.03893L5.28899 6.48693C5.12232 6.72293 4.90899 6.91626 4.66699 7.05893ZM3.33366 7.33359H2.00033V12.6669H3.33366V7.33359Z" fill="white"/>
</svg>
