<svg width="24" height="25" viewBox="0 0 24 25" fill="none" xmlns="http://www.w3.org/2000/svg">
<path d="M22.2234 0.810547H1.77187C0.792187 0.810547 0 1.58398 0 2.54023V23.0762C0 24.0324 0.792187 24.8105 1.77187 24.8105H22.2234C23.2031 24.8105 24 24.0324 24 23.0809V2.54023C24 1.58398 23.2031 0.810547 22.2234 0.810547ZM7.12031 21.2621H3.55781V9.80586H7.12031V21.2621ZM5.33906 8.24492C4.19531 8.24492 3.27188 7.32148 3.27188 6.18242C3.27188 5.04336 4.19531 4.11992 5.33906 4.11992C6.47813 4.11992 7.40156 5.04336 7.40156 6.18242C7.40156 7.3168 6.47813 8.24492 5.33906 8.24492ZM20.4516 21.2621H16.8937V15.6934C16.8937 14.3668 16.8703 12.6559 15.0422 12.6559C13.1906 12.6559 12.9094 14.1043 12.9094 15.5996V21.2621H9.35625V9.80586H12.7687V11.3715H12.8156C13.2891 10.4715 14.4516 9.51992 16.1813 9.51992C19.7859 9.51992 20.4516 11.8918 20.4516 14.9762V21.2621Z" fill="#7B869F"/>
</svg>
