<svg width="24" height="25" viewBox="0 0 24 25" fill="none" xmlns="http://www.w3.org/2000/svg">
<g clip-path="url(#clip0_607_1721)">
<path d="M22.2234 0.0683594H1.77187C0.792187 0.0683594 0 0.841797 0 1.79805V22.334C0 23.2902 0.792187 24.0684 1.77187 24.0684H22.2234C23.2031 24.0684 24 23.2902 24 22.3387V1.79805C24 0.841797 23.2031 0.0683594 22.2234 0.0683594ZM7.12031 20.5199H3.55781V9.06367H7.12031V20.5199ZM5.33906 7.50273C4.19531 7.50273 3.27188 6.5793 3.27188 5.44023C3.27188 4.30117 4.19531 3.37773 5.33906 3.37773C6.47813 3.37773 7.40156 4.30117 7.40156 5.44023C7.40156 6.57461 6.47813 7.50273 5.33906 7.50273ZM20.4516 20.5199H16.8937V14.9512C16.8937 13.6246 16.8703 11.9137 15.0422 11.9137C13.1906 11.9137 12.9094 13.3621 12.9094 14.8574V20.5199H9.35625V9.06367H12.7687V10.6293H12.8156C13.2891 9.7293 14.4516 8.77773 16.1813 8.77773C19.7859 8.77773 20.4516 11.1496 20.4516 14.234V20.5199Z" fill="#A5ADC0"/>
</g>
<defs>
<clipPath id="clip0_607_1721">
<rect width="24" height="24" fill="white" transform="translate(0 0.0683594)"/>
</clipPath>
</defs>
</svg>
