<svg width="145" height="34" viewBox="0 0 145 34" fill="none" xmlns="http://www.w3.org/2000/svg">
<path d="M18.8385 20.2587L2.43767 14.5324C1.93544 14.3571 1.54311 14.9832 1.91995 15.3587L19.6173 32.9912C19.9514 33.3241 20.5183 33.0517 20.4672 32.5828L19.1707 20.6766C19.1498 20.4849 19.0206 20.3222 18.8385 20.2587Z" fill="white"/>
<path d="M22.6198 27.7071L21.3209 18.0543C21.3042 17.9305 21.3345 17.805 21.4057 17.7025L28.2823 7.795C28.6046 7.33074 29.3289 7.67374 29.1739 8.21721L23.5962 27.7775C23.4476 28.2986 22.6921 28.2441 22.6198 27.7071Z" fill="white"/>
<path d="M28.6511 0.464991L1.31804 9.64991C0.873724 9.79922 0.860617 10.4229 1.29827 10.5907L18.4978 17.1868C18.7191 17.2717 18.9696 17.1896 19.0976 16.9902L29.2311 1.20911C29.4864 0.811626 29.0989 0.314524 28.6511 0.464991Z" fill="white"/>
<path d="M50.878 1.64972C57.388 1.64972 61.84 5.89172 61.84 11.8977C61.84 17.9877 57.346 22.1877 50.878 22.1877H44.62V31.1757H40V1.64972H50.878ZM50.584 17.9457C54.406 17.9457 57.052 15.4677 57.052 11.8557C57.052 8.28572 54.448 5.89172 50.584 5.89172H44.62V17.9457H50.584Z" fill="white"/>
<path d="M76.6942 9.50372C77.3242 9.50372 77.9962 9.58772 78.4582 9.62972V14.1657C77.8702 13.8717 76.9882 13.6617 76.2322 13.6617C72.9562 13.6617 71.2762 15.4677 70.2682 17.4417L70.2262 31.1757H65.7742V9.92372H70.3522L70.0582 12.7377C71.3602 10.9317 73.5862 9.50372 76.6942 9.50372Z" fill="white"/>
<path d="M84.7356 6.18572C83.0136 6.18572 81.6696 4.84172 81.6696 3.07772C81.6696 1.31372 83.0136 0.0537182 84.7356 0.0117188C86.4156 0.0117188 87.8436 1.27172 87.8436 3.07772C87.8436 4.88372 86.4156 6.18572 84.7356 6.18572ZM82.5516 31.1757V9.92372H87.0456V31.1757H82.5516Z" fill="white"/>
<path d="M99.2745 31.5957C96.2505 31.5957 93.5625 30.7137 91.2525 28.9917L93.1425 25.3797C94.6125 26.8077 97.2585 27.8997 99.4005 27.8997C101.584 27.8997 102.97 26.9337 102.97 25.3797C102.97 23.7417 101.668 22.8597 98.8545 22.1877C94.4025 21.0957 92.1765 19.0377 92.1765 15.8037C92.1765 12.0237 95.3685 9.50372 100.072 9.50372C102.676 9.50372 104.986 10.2597 106.708 11.5617L104.902 15.0897C103.642 13.9557 101.794 13.2417 99.9045 13.2417C97.8045 13.2417 96.5865 14.0817 96.5865 15.5097C96.5865 17.0637 97.6365 17.8197 100.744 18.4917C105.028 19.4157 107.338 21.5577 107.338 25.1697C107.338 29.0757 104.188 31.5957 99.2745 31.5957Z" fill="white"/>
<path d="M136.53 9.50372C141.654 9.50372 144.846 13.1577 144.846 18.1977V31.1757H140.394V18.4077C140.394 15.5937 138.546 13.5357 135.648 13.5357C133.464 13.5357 131.742 14.7117 130.776 16.5177V31.1757H126.324V18.4077C126.324 15.5937 124.476 13.5357 121.578 13.5357C119.058 13.5357 117.21 15.1317 116.37 17.2737L116.328 31.1757H111.876V9.92372H116.454L116.16 12.2757H116.286C117.672 10.5537 119.814 9.50372 122.46 9.50372C125.694 9.50372 128.172 10.9737 129.6 13.3257C130.944 11.0157 133.338 9.50372 136.53 9.50372Z" fill="white"/>
</svg>
