<svg width="146" height="34" viewBox="0 0 146 34" fill="none" xmlns="http://www.w3.org/2000/svg">
<path d="M19.4156 20.247L3.01482 14.5207C2.51259 14.3454 2.12026 14.9715 2.4971 15.347L20.1944 32.9795C20.5285 33.3123 21.0954 33.04 21.0444 32.5711L19.7479 20.6649C19.727 20.4732 19.5977 20.3105 19.4156 20.247Z" fill="white"/>
<path d="M23.197 27.6953L21.898 18.0425C21.8814 17.9188 21.9116 17.7933 21.9828 17.6908L28.8595 7.78328C29.1817 7.31902 29.906 7.66202 29.7511 8.20549L24.1733 27.7658C24.0247 28.2869 23.2692 28.2324 23.197 27.6953Z" fill="white"/>
<path d="M29.2283 0.453273L1.89519 9.6382C1.45087 9.7875 1.43777 10.4112 1.87542 10.579L19.075 17.1751C19.2963 17.26 19.5467 17.1778 19.6748 16.9784L29.8083 1.19739C30.0635 0.799908 29.676 0.302805 29.2283 0.453273Z" fill="white"/>
<path d="M51.4551 1.638C57.9651 1.638 62.4172 5.88 62.4172 11.886C62.4172 17.976 57.9231 22.176 51.4551 22.176H45.1971V31.164H40.5771V1.638H51.4551ZM51.1611 17.934C54.9832 17.934 57.6291 15.456 57.6291 11.844C57.6291 8.274 55.0251 5.88 51.1611 5.88H45.1971V17.934H51.1611Z" fill="white"/>
<path d="M77.2714 9.492C77.9014 9.492 78.5734 9.576 79.0354 9.618V14.154C78.4474 13.86 77.5654 13.65 76.8094 13.65C73.5334 13.65 71.8534 15.456 70.8454 17.43L70.8034 31.164H66.3514V9.912H70.9294L70.6354 12.726C71.9374 10.92 74.1634 9.492 77.2714 9.492Z" fill="white"/>
<path d="M85.3127 6.174C83.5907 6.174 82.2467 4.83 82.2467 3.066C82.2467 1.302 83.5907 0.0419995 85.3127 0C86.9927 0 88.4207 1.26 88.4207 3.066C88.4207 4.872 86.9927 6.174 85.3127 6.174ZM83.1287 31.164V9.912H87.6227V31.164H83.1287Z" fill="white"/>
<path d="M99.8516 31.584C96.8276 31.584 94.1396 30.702 91.8296 28.98L93.7196 25.368C95.1896 26.796 97.8356 27.888 99.9776 27.888C102.162 27.888 103.548 26.922 103.548 25.368C103.548 23.73 102.246 22.848 99.4316 22.176C94.9796 21.084 92.7536 19.026 92.7536 15.792C92.7536 12.012 95.9456 9.492 100.65 9.492C103.254 9.492 105.564 10.248 107.286 11.55L105.48 15.078C104.22 13.944 102.372 13.23 100.482 13.23C98.3816 13.23 97.1636 14.07 97.1636 15.498C97.1636 17.052 98.2136 17.808 101.322 18.48C105.606 19.404 107.916 21.546 107.916 25.158C107.916 29.064 104.766 31.584 99.8516 31.584Z" fill="white"/>
<path d="M137.107 9.492C142.231 9.492 145.423 13.146 145.423 18.186V31.164H140.971V18.396C140.971 15.582 139.123 13.524 136.225 13.524C134.041 13.524 132.319 14.7 131.353 16.506V31.164H126.901V18.396C126.901 15.582 125.053 13.524 122.155 13.524C119.635 13.524 117.787 15.12 116.947 17.262L116.905 31.164H112.453V9.912H117.031L116.737 12.264H116.863C118.249 10.542 120.391 9.492 123.037 9.492C126.271 9.492 128.749 10.962 130.177 13.314C131.521 11.004 133.915 9.492 137.107 9.492Z" fill="white"/>
</svg>
