<svg width="21" height="24" viewBox="0 0 21 24" fill="none" xmlns="http://www.w3.org/2000/svg">
    <g id="Vector 3">
        <path
            d="M13.331 14.3277L1.72502 10.2756C1.36961 10.1515 1.09198 10.5946 1.35866 10.8603L13.8821 23.3379C14.1186 23.5734 14.5197 23.3807 14.4836 23.0489L13.5661 14.6235C13.5514 14.4878 13.4599 14.3727 13.331 14.3277Z"
            fill="black" />
        <path
            d="M16.0069 19.5986L15.0877 12.7678C15.0759 12.6802 15.0973 12.5914 15.1477 12.5189L20.014 5.50783C20.242 5.1793 20.7546 5.42202 20.6449 5.80661L16.6978 19.6484C16.5927 20.0172 16.058 19.9786 16.0069 19.5986Z"
            fill="black" />
        <path
            d="M20.2749 0.320758L0.93271 6.82046C0.61829 6.92612 0.609016 7.36745 0.918719 7.48622L13.09 12.154C13.2466 12.214 13.4238 12.1559 13.5144 12.0148L20.6854 0.847333C20.866 0.566054 20.5918 0.21428 20.2749 0.320758Z"
            fill="black" />
    </g>
</svg>