<svg width="103" height="24" viewBox="0 0 103 24" fill="none" xmlns="http://www.w3.org/2000/svg">
    <path
        d="M13.331 14.3277L1.72502 10.2756C1.36961 10.1515 1.09198 10.5946 1.35866 10.8603L13.8821 23.3379C14.1186 23.5734 14.5197 23.3807 14.4836 23.0489L13.5661 14.6235C13.5514 14.4878 13.4599 14.3727 13.331 14.3277Z"
        fill="black" />
    <path
        d="M16.0069 19.5986L15.0877 12.7678C15.0759 12.6802 15.0973 12.5914 15.1477 12.5189L20.014 5.50783C20.242 5.1793 20.7546 5.42202 20.6449 5.80661L16.6978 19.6484C16.5927 20.0172 16.058 19.9786 16.0069 19.5986Z"
        fill="black" />
    <path
        d="M20.2749 0.320758L0.93271 6.82046C0.61829 6.92612 0.609016 7.36745 0.918719 7.48622L13.09 12.154C13.2466 12.214 13.4238 12.1559 13.5144 12.0148L20.6854 0.847333C20.866 0.566054 20.5918 0.21428 20.2749 0.320758Z"
        fill="black" />
    <path
        d="M36.004 1.15913C40.6108 1.15913 43.7612 4.16098 43.7612 8.41112C43.7612 12.7207 40.581 15.6928 36.004 15.6928H31.5755V22.0532H28.3062V1.15913H36.004ZM35.7959 12.691C38.5005 12.691 40.373 10.9374 40.373 8.3814C40.373 5.85509 38.5303 4.16098 35.7959 4.16098H31.5755V12.691H35.7959Z"
        fill="black" />
    <path
        d="M54.2728 6.71701C54.7186 6.71701 55.1941 6.77645 55.5211 6.80617V10.0161C55.105 9.80802 54.4808 9.65941 53.9459 9.65941C51.6276 9.65941 50.4387 10.9374 49.7254 12.3343L49.6957 22.0532H46.5453V7.01422H49.7849L49.5768 9.00554C50.4982 7.72753 52.0734 6.71701 54.2728 6.71701Z"
        fill="black" />
    <path
        d="M59.9632 4.36903C58.7447 4.36903 57.7936 3.41795 57.7936 2.16965C57.7936 0.92136 58.7447 0.0297209 59.9632 0C61.1521 0 62.1626 0.891639 62.1626 2.16965C62.1626 3.44767 61.1521 4.36903 59.9632 4.36903ZM58.4177 22.0532V7.01422H61.5979V22.0532H58.4177Z"
        fill="black" />
    <path
        d="M70.2517 22.3504C68.1117 22.3504 66.2096 21.7262 64.5749 20.5077L65.9124 17.9516C66.9526 18.9622 68.8251 19.7349 70.3408 19.7349C71.8863 19.7349 72.8671 19.0513 72.8671 17.9516C72.8671 16.7925 71.9458 16.1684 69.9545 15.6928C66.804 14.9201 65.2288 13.4637 65.2288 11.1752C65.2288 8.50028 67.4876 6.71701 70.8164 6.71701C72.6591 6.71701 74.2938 7.25199 75.5123 8.17335L74.2343 10.6699C73.3427 9.86746 72.035 9.3622 70.6975 9.3622C69.2114 9.3622 68.3495 9.95662 68.3495 10.9671C68.3495 12.0668 69.0925 12.6018 71.2919 13.0774C74.3235 13.7312 75.9582 15.247 75.9582 17.803C75.9582 20.5671 73.7291 22.3504 70.2517 22.3504Z"
        fill="black" />
    <path
        d="M96.6154 6.71701C100.241 6.71701 102.5 9.30276 102.5 12.8693V22.0532H99.3497V13.0179C99.3497 11.0266 98.042 9.57025 95.9912 9.57025C94.4457 9.57025 93.2271 10.4024 92.5435 11.6805V22.0532H89.3931V13.0179C89.3931 11.0266 88.0854 9.57025 86.0346 9.57025C84.2513 9.57025 82.9436 10.6997 82.3492 12.2154L82.3194 22.0532H79.169V7.01422H82.4086L82.2006 8.67861H82.2897C83.2705 7.46004 84.7863 6.71701 86.6587 6.71701C88.9473 6.71701 90.7008 7.75725 91.7114 9.42164C92.6624 7.78697 94.3566 6.71701 96.6154 6.71701Z"
        fill="black" />
</svg>