<svg width="17" height="16" viewBox="0 0 17 16" fill="none" xmlns="http://www.w3.org/2000/svg">
<g clip-path="url(#clip0_1869_131)">
<path d="M12.5208 11.0787L14.9044 13.4617C15.165 13.7222 15.165 14.1445 14.9045 14.405C14.644 14.6655 14.2217 14.6654 13.9612 14.4049L11.5782 12.0213C10.516 12.8728 9.19483 13.3359 7.8335 13.334C4.5215 13.334 1.8335 10.646 1.8335 7.33398C1.8335 4.02198 4.5215 1.33398 7.8335 1.33398C11.1455 1.33398 13.8335 4.02198 13.8335 7.33398C13.8354 8.69532 13.3723 10.0165 12.5208 11.0787ZM11.1835 10.584C12.0296 9.71391 12.5021 8.5476 12.5002 7.33398C12.5002 4.75532 10.4115 2.66732 7.8335 2.66732C5.25483 2.66732 3.16683 4.75532 3.16683 7.33398C3.16683 9.91198 5.25483 12.0007 7.8335 12.0007C9.04712 12.0026 10.2134 11.5301 11.0835 10.684L11.1835 10.584Z" fill="#A5ADC0"/>
</g>
<defs>
<clipPath id="clip0_1869_131">
<rect width="16" height="16" fill="white" transform="translate(0.5)"/>
</clipPath>
</defs>
</svg>
