<svg width="13" height="14" viewBox="0 0 13 14" fill="none" xmlns="http://www.w3.org/2000/svg">
<path d="M7.74648 10.3485L4.94714 8.82181C4.58168 9.21252 4.10713 9.48427 3.58519 9.60174C3.06325 9.7192 2.51804 9.67696 2.02043 9.4805C1.52281 9.28404 1.09579 8.94245 0.794857 8.50011C0.493929 8.05777 0.333008 7.53514 0.333008 7.00014C0.333008 6.46515 0.493929 5.94252 0.794857 5.50018C1.09579 5.05784 1.52281 4.71624 2.02043 4.51978C2.51804 4.32332 3.06325 4.28108 3.58519 4.39855C4.10713 4.51602 4.58168 4.78777 4.94714 5.17848L7.74715 3.65181C7.58818 3.02253 7.66418 2.35687 7.9609 1.77961C8.25762 1.20235 8.75468 0.753131 9.35892 0.516144C9.96316 0.279158 10.6331 0.27068 11.2431 0.4923C11.8532 0.713919 12.3615 1.15042 12.6727 1.71998C12.9839 2.28955 13.0767 2.95307 12.9337 3.58617C12.7908 4.21928 12.4218 4.7785 11.896 5.15902C11.3702 5.53953 10.7236 5.71522 10.0775 5.65314C9.43147 5.59106 8.83021 5.29548 8.38648 4.82181L5.58648 6.34848C5.69395 6.77605 5.69395 7.22357 5.58648 7.65114L8.38581 9.17781C8.82955 8.70414 9.4308 8.40856 10.0769 8.34648C10.723 8.2844 11.3695 8.46009 11.8953 8.8406C12.4211 9.22112 12.7901 9.78034 12.9331 10.4134C13.0761 11.0466 12.9832 11.7101 12.672 12.2796C12.3608 12.8492 11.8525 13.2857 11.2425 13.5073C10.6324 13.7289 9.9625 13.7205 9.35826 13.4835C8.75402 13.2465 8.25695 12.7973 7.96023 12.22C7.66352 11.6428 7.58751 10.9771 7.74648 10.3478V10.3485ZM2.99981 8.33314C3.35343 8.33314 3.69257 8.19267 3.94262 7.94262C4.19267 7.69257 4.33315 7.35343 4.33315 6.99981C4.33315 6.64619 4.19267 6.30705 3.94262 6.057C3.69257 5.80695 3.35343 5.66648 2.99981 5.66648C2.64619 5.66648 2.30705 5.80695 2.057 6.057C1.80695 6.30705 1.66648 6.64619 1.66648 6.99981C1.66648 7.35343 1.80695 7.69257 2.057 7.94262C2.30705 8.19267 2.64619 8.33314 2.99981 8.33314ZM10.3331 4.33314C10.6868 4.33314 11.0259 4.19267 11.276 3.94262C11.526 3.69257 11.6665 3.35343 11.6665 2.99981C11.6665 2.64619 11.526 2.30705 11.276 2.057C11.0259 1.80695 10.6868 1.66648 10.3331 1.66648C9.97952 1.66648 9.64038 1.80695 9.39034 2.057C9.14029 2.30705 8.99981 2.64619 8.99981 2.99981C8.99981 3.35343 9.14029 3.69257 9.39034 3.94262C9.64038 4.19267 9.97952 4.33314 10.3331 4.33314ZM10.3331 12.3331C10.6868 12.3331 11.0259 12.1927 11.276 11.9426C11.526 11.6926 11.6665 11.3534 11.6665 10.9998C11.6665 10.6462 11.526 10.307 11.276 10.057C11.0259 9.80695 10.6868 9.66648 10.3331 9.66648C9.97952 9.66648 9.64038 9.80695 9.39034 10.057C9.14029 10.307 8.99981 10.6462 8.99981 10.9998C8.99981 11.3534 9.14029 11.6926 9.39034 11.9426C9.64038 12.1927 9.97952 12.3331 10.3331 12.3331Z" fill="white"/>
</svg>
