<svg width="26" height="26" viewBox="0 0 26 26" fill="none" xmlns="http://www.w3.org/2000/svg">
<path fill-rule="evenodd" clip-rule="evenodd" d="M14.1963 4.52444L16.176 8.47942C16.37 8.86768 16.7445 9.13691 17.1788 9.19921L21.6074 9.83668C22.7016 9.99466 23.1371 11.3208 22.3452 12.0806L19.1427 15.1578C18.828 15.4604 18.6847 15.8954 18.7592 16.3226L19.5149 20.667C19.7011 21.7417 18.5572 22.5616 17.5792 22.0532L13.621 20.0006C13.2329 19.7992 12.7682 19.7992 12.379 20.0006L8.42075 22.0532C7.44275 22.5616 6.29893 21.7417 6.48618 20.667L7.24083 16.3226C7.31528 15.8954 7.17202 15.4604 6.8573 15.1578L3.65482 12.0806C2.86294 11.3208 3.29836 9.99466 4.39255 9.83668L8.82121 9.19921C9.2555 9.13691 9.63113 8.86768 9.82515 8.47942L11.8037 4.52444C12.2933 3.54654 13.7067 3.54654 14.1963 4.52444Z" stroke="#FDB022" stroke-width="1.5" stroke-linecap="round" stroke-linejoin="round"/>
</svg>
