<svg width="24" height="25" viewBox="0 0 24 25" fill="none" xmlns="http://www.w3.org/2000/svg">
<path d="M2.51766 0.810547H21.4753C22.1086 0.830703 22.733 1.08289 23.1905 1.52352C23.6855 1.98805 23.9775 2.6532 24 3.33055V22.2845C23.9794 22.9862 23.6663 23.6743 23.1413 24.1421C22.6898 24.5541 22.0894 24.789 21.48 24.8105H2.52656C1.82578 24.7899 1.13766 24.4773 0.670313 23.9532C0.256875 23.5032 0.0215625 22.9018 0 22.2924V3.33383C0.0201562 2.6893 0.283594 2.05367 0.738281 1.59477C1.20047 1.11477 1.85344 0.833047 2.51766 0.810547ZM3.82172 4.44523C5.94938 7.54461 8.07984 10.6412 10.2075 13.7405C8.07937 16.2151 5.94984 18.6882 3.82219 21.1632C4.30219 21.1641 4.78219 21.1632 5.26219 21.1641C7.12687 19.0027 8.98406 16.8352 10.8488 14.6738C12.3375 16.8362 13.8211 19.0023 15.3103 21.1641C16.9331 21.1627 18.5559 21.1646 20.1783 21.1632C17.9719 17.9499 15.7641 14.7376 13.5563 11.5252C15.5855 9.16461 17.617 6.80633 19.6458 4.44523C19.1639 4.4457 18.6825 4.44289 18.2006 4.44664C16.4409 6.49648 14.678 8.54398 12.915 10.5915C11.5059 8.54258 10.1006 6.49133 8.68922 4.44383C7.06687 4.44617 5.44453 4.44383 3.82172 4.44523Z" fill="#7B869F"/>
</svg>
