<svg width="24" height="20" viewBox="0 0 24 20" fill="none" xmlns="http://www.w3.org/2000/svg">
<path d="M7.55016 19.8191C16.6045 19.8191 21.5583 12.3158 21.5583 5.81095C21.5583 5.60002 21.5536 5.38439 21.5442 5.17345C22.5079 4.47655 23.3395 3.61335 24 2.62439C23.1025 3.02369 22.1496 3.28447 21.1739 3.39783C22.2013 2.782 22.9705 1.81456 23.3391 0.674859C22.3726 1.24765 21.3156 1.6517 20.2134 1.8697C19.4708 1.08065 18.489 0.558208 17.4197 0.383143C16.3504 0.208077 15.2532 0.390142 14.2977 0.901188C13.3423 1.41223 12.5818 2.2238 12.1338 3.2104C11.6859 4.19701 11.5754 5.30371 11.8195 6.35939C9.86249 6.26118 7.94794 5.7528 6.19998 4.86719C4.45203 3.98158 2.90969 2.73853 1.67297 1.21861C1.0444 2.30234 0.852057 3.58474 1.13503 4.80518C1.418 6.02563 2.15506 7.09254 3.19641 7.78908C2.41463 7.76426 1.64998 7.55377 0.965625 7.17501V7.23595C0.964925 8.37324 1.3581 9.47568 2.07831 10.3559C2.79852 11.236 3.80132 11.8397 4.91625 12.0641C4.19206 12.2622 3.43198 12.2911 2.69484 12.1485C3.00945 13.1265 3.62157 13.982 4.44577 14.5954C5.26997 15.2089 6.26512 15.5497 7.29234 15.5703C5.54842 16.9402 3.39417 17.6832 1.17656 17.6797C0.783287 17.6791 0.390399 17.655 0 17.6075C2.25286 19.0528 4.87353 19.8205 7.55016 19.8191Z" fill="#A5ADC0"/>
</svg>
