<svg width="32" height="32" viewBox="0 0 32 32" fill="none" xmlns="http://www.w3.org/2000/svg">
<rect width="32" height="32" rx="16" fill="#A5ADC0"/>
<path d="M18.6676 18.667L16.001 16.0003M16.001 16.0003L13.3343 18.667M16.001 16.0003V22.0003M21.5943 20.2603C22.2445 19.9058 22.7582 19.3449 23.0542 18.6661C23.3502 17.9872 23.4118 17.2291 23.2291 16.5114C23.0464 15.7937 22.6299 15.1573 22.0454 14.7026C21.4609 14.2479 20.7415 14.0008 20.001 14.0003H19.161C18.9592 13.2198 18.5831 12.4952 18.0609 11.881C17.5388 11.2667 16.8842 10.7789 16.1463 10.4541C15.4085 10.1292 14.6067 9.97589 13.801 10.0056C12.9954 10.0353 12.207 10.2472 11.4951 10.6254C10.7831 11.0037 10.1662 11.5384 9.6907 12.1894C9.21517 12.8404 8.89341 13.5907 8.7496 14.3839C8.6058 15.1771 8.64369 15.9927 8.86043 16.7692C9.07716 17.5456 9.46711 18.2629 10.001 18.867" stroke="#344054" stroke-width="1.2" stroke-linecap="round" stroke-linejoin="round"/>
</svg>
