<svg width="43" height="43" viewBox="0 0 43 43" fill="none" xmlns="http://www.w3.org/2000/svg">
<circle cx="21.5" cy="21.0684" r="21" fill="white"/>
<circle cx="21.4999" cy="21.0692" r="19.4559" fill="#1F6AEC"/>
<mask id="mask0_928_1560" style="mask-type:alpha" maskUnits="userSpaceOnUse" x="2" y="1" width="39" height="40">
<circle cx="21.4999" cy="21.0692" r="19.4559" fill="#F88600"/>
</mask>
<g mask="url(#mask0_928_1560)">
<path d="M21.2683 47.401C19.5573 47.401 17.9163 46.7212 16.7064 45.5113C15.4965 44.3014 14.8168 42.6605 14.8168 40.9494V27.2129H27.7273V40.9494C27.7273 41.7973 27.5602 42.6368 27.2355 43.42C26.9108 44.2033 26.4349 44.9148 25.8351 45.514C25.2352 46.1132 24.5231 46.5882 23.7395 46.912C22.9559 47.2358 22.1162 47.4019 21.2683 47.401Z" fill="#CC8070"/>
<path d="M14.8235 31.5818C14.8235 31.5818 18.373 38.1747 22.4284 37.8547C28.7014 37.3562 27.6373 29.5801 27.6373 29.5801C27.6373 29.5801 25.204 34.7889 21.3569 34.7889C20.0976 34.7758 18.8572 34.4809 17.7266 33.9259C16.5961 33.371 15.6042 32.57 14.8235 31.5818Z" fill="#B76456"/>
<path d="M11.6456 22.4597L11.0057 15.9338C10.1797 11.7592 13.4315 9.55664 16.2815 9.55664H26.1337C29.1549 9.55664 32.749 11.7444 31.2235 16.4472L30.338 23.5536L11.6456 22.4597Z" fill="#070924"/>
<path d="M29.6771 26.0297C31.6267 27.4733 35.0051 20.9101 33.1001 19.3326C31.1951 17.755 29.9376 20.6274 29.9376 20.6274L29.8929 23.0383L29.6176 25.2707L29.506 25.9627L29.6771 26.0297Z" fill="#CC8070"/>
<path d="M32.5783 21.3342C32.5783 21.3342 31.157 20.8654 30.1525 22.949" stroke="#070924" stroke-width="0.52" stroke-linecap="round" stroke-linejoin="round"/>
<path d="M30.8457 21.9512C30.8457 21.9512 32.386 22.7771 31.3666 24.0124" stroke="#070924" stroke-width="0.52" stroke-linecap="round" stroke-linejoin="round"/>
<path d="M12.6136 26.0305C10.6565 27.4741 7.27822 20.9109 9.18317 19.3334C11.0881 17.7559 12.2787 20.6877 12.2787 20.6877L12.3903 23.0689L12.6731 25.3013L12.7773 25.9933L12.6136 26.0305Z" fill="#CC8070"/>
<path d="M9.7124 21.3342C9.7124 21.3342 11.1262 20.8654 12.1308 22.949" stroke="#070924" stroke-width="0.52" stroke-linecap="round" stroke-linejoin="round"/>
<path d="M11.4455 21.9512C11.4455 21.9512 9.89768 22.7771 10.9171 24.0124" stroke="#070924" stroke-width="0.52" stroke-linecap="round" stroke-linejoin="round"/>
<path d="M30.3161 17.5638C30.3107 20.9459 29.9491 24.3181 29.2371 27.6244C28.7035 30.0735 27.2247 32.2129 25.1221 33.5774L24.7351 33.8304C23.6445 34.5387 22.3751 34.9224 21.0748 34.9369C19.7744 34.9514 18.4967 34.596 17.3906 33.9122C16.2646 33.2219 15.2951 32.304 14.5442 31.2175C13.7934 30.1309 13.2776 28.8995 13.0301 27.6021C12.4593 24.2841 12.1285 20.9294 12.0404 17.5638C12.0404 17.5638 11.1921 7.30981 21.0517 7.51073C30.9114 7.71164 30.3161 17.5638 30.3161 17.5638Z" fill="#CC8070"/>
<path d="M30.4508 5.93916C27.318 3.70679 21.1343 5.27689 17.756 6.82467C17.8304 5.81266 17.2128 5.92428 17.2128 5.92428C11.2598 7.51671 12.8374 12.1898 12.8374 12.1898H12.8895C12.2718 13.5367 11.4682 16.4015 12.2272 21.5881C12.2272 21.5881 13.8047 15.9774 13.8419 12.6586C16.4761 13.8194 23.6867 16.6397 28.3895 15.0621C28.8094 17.2825 29.3761 19.4726 30.0862 21.6178C30.5029 19.1736 30.4878 16.6752 30.0415 14.2361C30.3352 14.0343 30.6071 13.8024 30.8526 13.5441C30.8526 13.5441 34.8857 9.07936 30.4508 5.93916Z" fill="#070924"/>
<path d="M20.3145 21.4922V24.8035C20.3155 24.9129 20.3356 25.0211 20.374 25.1235C20.4584 25.3062 20.6051 25.4529 20.7878 25.5374C20.9704 25.6219 21.1772 25.6388 21.3711 25.5849L22.2343 25.3542" stroke="#070924" stroke-width="0.52" stroke-linecap="round" stroke-linejoin="round"/>
<path d="M17.0337 21.4224C17.5063 21.4224 17.8895 21.0393 17.8895 20.5667C17.8895 20.0941 17.5063 19.7109 17.0337 19.7109C16.5611 19.7109 16.178 20.0941 16.178 20.5667C16.178 21.0393 16.5611 21.4224 17.0337 21.4224Z" fill="#070924"/>
<path d="M24.959 21.4224C25.4316 21.4224 25.8148 21.0393 25.8148 20.5667C25.8148 20.0941 25.4316 19.7109 24.959 19.7109C24.4864 19.7109 24.1033 20.0941 24.1033 20.5667C24.1033 21.0393 24.4864 21.4224 24.959 21.4224Z" fill="#070924"/>
<path d="M18.5902 21.5059L16.462 22.9123" stroke="#070924" stroke-width="0.39" stroke-linecap="round" stroke-linejoin="round"/>
<path d="M23.6125 21.498L25.4952 22.9193" stroke="#070924" stroke-width="0.39" stroke-linecap="round" stroke-linejoin="round"/>
<path d="M18.6641 27.2129C19.3828 27.6113 20.2045 27.785 21.0229 27.7115C21.8901 27.731 22.751 27.5609 23.5455 27.2129" stroke="#070924" stroke-width="0.52" stroke-linecap="round" stroke-linejoin="round"/>
<path d="M21.0891 31.8281V32.7583" stroke="#070924" stroke-width="0.39" stroke-linecap="round" stroke-linejoin="round"/>
<path d="M19.2068 18.6118V16.9375L16.1112 16.997C15.7223 17.0054 15.3476 17.1443 15.0471 17.3914L13.8268 18.8127L15.8731 18.5076L19.2068 18.6118Z" fill="#070924"/>
<path d="M22.831 18.6118L22.7938 16.9375L25.8894 16.997C26.2785 17.0042 26.6537 17.1433 26.9535 17.3914L28.1887 18.8127L26.1349 18.5076L22.831 18.6118Z" fill="#070924"/>
<path opacity="0.19" d="M29.4537 21.4472C29.4537 22.183 29.2355 22.9024 28.8267 23.5142C28.4178 24.1261 27.8367 24.603 27.1569 24.8846C26.477 25.1662 25.7289 25.2399 25.0072 25.0963C24.2855 24.9527 23.6225 24.5984 23.1022 24.0781C22.5819 23.5577 22.2275 22.8948 22.0839 22.173C21.9404 21.4513 22.0141 20.7032 22.2957 20.0234C22.5773 19.3435 23.0542 18.7624 23.666 18.3536C24.2779 17.9448 24.9972 17.7266 25.7331 17.7266C26.7198 17.7266 27.6662 18.1186 28.3639 18.8163C29.0617 19.5141 29.4537 20.4604 29.4537 21.4472Z" fill="#FFF8E8"/>
<path opacity="0.19" d="M20.3308 21.4472C20.3308 22.183 20.1126 22.9024 19.7037 23.5142C19.2949 24.1261 18.7138 24.603 18.034 24.8846C17.3541 25.1662 16.606 25.2399 15.8843 25.0963C15.1626 24.9527 14.4996 24.5984 13.9793 24.0781C13.4589 23.5577 13.1046 22.8948 12.961 22.173C12.8175 21.4513 12.8911 20.7032 13.1727 20.0234C13.4543 19.3435 13.9312 18.7624 14.5431 18.3536C15.1549 17.9448 15.8743 17.7266 16.6101 17.7266C17.5969 17.7266 18.5433 18.1186 19.241 18.8163C19.9388 19.5141 20.3308 20.4604 20.3308 21.4472Z" fill="#FFF8E8"/>
<path d="M20.3308 21.4472C20.3308 22.183 20.1126 22.9024 19.7037 23.5142C19.2949 24.1261 18.7138 24.603 18.034 24.8846C17.3541 25.1662 16.606 25.2399 15.8843 25.0963C15.1626 24.9527 14.4996 24.5984 13.9793 24.0781C13.4589 23.5577 13.1046 22.8948 12.961 22.173C12.8175 21.4513 12.8911 20.7032 13.1727 20.0234C13.4543 19.3435 13.9312 18.7624 14.5431 18.3536C15.1549 17.9448 15.8743 17.7266 16.6101 17.7266C17.5969 17.7266 18.5433 18.1186 19.241 18.8163C19.9388 19.5141 20.3308 20.4604 20.3308 21.4472Z" stroke="#1A1A1A" stroke-width="0.33" stroke-linecap="round" stroke-linejoin="round"/>
<path d="M29.4537 21.4472C29.4537 22.183 29.2355 22.9024 28.8267 23.5142C28.4178 24.1261 27.8367 24.603 27.1569 24.8846C26.477 25.1662 25.7289 25.2399 25.0072 25.0963C24.2855 24.9527 23.6225 24.5984 23.1022 24.0781C22.5819 23.5577 22.2275 22.8948 22.0839 22.173C21.9404 21.4513 22.0141 20.7032 22.2957 20.0234C22.5773 19.3435 23.0542 18.7624 23.666 18.3536C24.2779 17.9448 24.9972 17.7266 25.7331 17.7266C26.7198 17.7266 27.6662 18.1186 28.3639 18.8163C29.0617 19.5141 29.4537 20.4604 29.4537 21.4472V21.4472Z" stroke="#1A1A1A" stroke-width="0.33" stroke-linecap="round" stroke-linejoin="round"/>
<path d="M20.3318 21.4449C20.5572 21.2236 20.8605 21.0996 21.1764 21.0996C21.4923 21.0996 21.7955 21.2236 22.0209 21.4449" stroke="#1A1A1A" stroke-width="0.33" stroke-linecap="round" stroke-linejoin="round"/>
<path d="M12.9257 21.4473H12.3081" stroke="#1A1A1A" stroke-width="0.33" stroke-miterlimit="10"/>
<path d="M30.1523 21.4473H29.5347" stroke="#1A1A1A" stroke-width="0.33" stroke-miterlimit="10"/>
</g>
</svg>
