<svg width="39" height="40" viewBox="0 0 39 40" fill="none" xmlns="http://www.w3.org/2000/svg">
<circle cx="19.4999" cy="20.0008" r="19.4559" fill="#1F6AEC"/>
<mask id="mask0_1869_256" style="mask-type:alpha" maskUnits="userSpaceOnUse" x="0" y="0" width="39" height="40">
<circle cx="19.4999" cy="20.0008" r="19.4559" fill="#F88600"/>
</mask>
<g mask="url(#mask0_1869_256)">
<path d="M19.2683 46.3326C17.5573 46.3326 15.9163 45.6529 14.7064 44.443C13.4965 43.2331 12.8168 41.5921 12.8168 39.8811V26.1445H25.7273V39.8811C25.7273 40.7289 25.5602 41.5685 25.2355 42.3517C24.9108 43.1349 24.4349 43.8464 23.8351 44.4456C23.2352 45.0448 22.5231 45.5199 21.7395 45.8436C20.9559 46.1674 20.1162 46.3336 19.2683 46.3326Z" fill="#CC8070"/>
<path d="M12.8235 30.5134C12.8235 30.5134 16.373 37.1063 20.4284 36.7864C26.7014 36.2878 25.6373 28.5117 25.6373 28.5117C25.6373 28.5117 23.204 33.7206 19.3569 33.7206C18.0976 33.7074 16.8572 33.4125 15.7266 32.8576C14.5961 32.3026 13.6042 31.5017 12.8235 30.5134Z" fill="#B76456"/>
<path d="M9.64564 21.3914L9.00569 14.8654C8.17972 10.6909 11.4315 8.48828 14.2815 8.48828H24.1337C27.1549 8.48828 30.749 10.676 29.2235 15.3789L28.338 22.4852L9.64564 21.3914Z" fill="#070924"/>
<path d="M27.6771 24.9613C29.6267 26.4049 33.0051 19.8418 31.1001 18.2642C29.1951 16.6867 27.9376 19.559 27.9376 19.559L27.8929 21.97L27.6176 24.2023L27.506 24.8944L27.6771 24.9613Z" fill="#CC8070"/>
<path d="M30.5783 20.2659C30.5783 20.2659 29.157 19.7971 28.1525 21.8806" stroke="#070924" stroke-width="0.52" stroke-linecap="round" stroke-linejoin="round"/>
<path d="M28.8457 20.8828C28.8457 20.8828 30.386 21.7088 29.3666 22.944" stroke="#070924" stroke-width="0.52" stroke-linecap="round" stroke-linejoin="round"/>
<path d="M10.6136 24.9621C8.65654 26.4057 5.27822 19.8426 7.18317 18.265C9.08813 16.6875 10.2787 19.6193 10.2787 19.6193L10.3903 22.0005L10.6731 24.2329L10.7773 24.9249L10.6136 24.9621Z" fill="#CC8070"/>
<path d="M7.7124 20.2659C7.7124 20.2659 9.12624 19.7971 10.1308 21.8806" stroke="#070924" stroke-width="0.52" stroke-linecap="round" stroke-linejoin="round"/>
<path d="M9.44546 20.8828C9.44546 20.8828 7.89768 21.7088 8.91713 22.944" stroke="#070924" stroke-width="0.52" stroke-linecap="round" stroke-linejoin="round"/>
<path d="M28.3161 16.4955C28.3107 19.8776 27.9491 23.2497 27.2371 26.556C26.7035 29.0051 25.2247 31.1445 23.1221 32.509L22.7351 32.762C21.6445 33.4703 20.3751 33.8541 19.0748 33.8685C17.7744 33.883 16.4967 33.5277 15.3906 32.8439C14.2646 32.1535 13.2951 31.2357 12.5442 30.1491C11.7934 29.0625 11.2776 27.8311 11.0301 26.5337C10.4593 23.2158 10.1285 19.861 10.0404 16.4955C10.0404 16.4955 9.19208 6.24145 19.0517 6.44237C28.9114 6.64328 28.3161 16.4955 28.3161 16.4955Z" fill="#CC8070"/>
<path d="M28.4508 4.8708C25.318 2.63843 19.1343 4.20853 15.756 5.75631C15.8304 4.7443 15.2128 4.85592 15.2128 4.85592C9.25982 6.44835 10.8374 11.1214 10.8374 11.1214H10.8895C10.2718 12.4683 9.46818 15.3332 10.2272 20.5197C10.2272 20.5197 11.8047 14.909 11.8419 11.5902C14.4761 12.7511 21.6867 15.5713 26.3895 13.9938C26.8094 16.2141 27.3761 18.4042 28.0862 20.5495C28.5029 18.1052 28.4878 15.6068 28.0415 13.1678C28.3352 12.966 28.6071 12.734 28.8526 12.4757C28.8526 12.4757 32.8857 8.01101 28.4508 4.8708Z" fill="#070924"/>
<path d="M18.3145 20.4238V23.7352C18.3155 23.8445 18.3356 23.9528 18.374 24.0552C18.4584 24.2378 18.6051 24.3846 18.7878 24.4691C18.9704 24.5536 19.1772 24.5704 19.3711 24.5165L20.2343 24.2858" stroke="#070924" stroke-width="0.52" stroke-linecap="round" stroke-linejoin="round"/>
<path d="M15.0337 20.3541C15.5063 20.3541 15.8895 19.9709 15.8895 19.4983C15.8895 19.0257 15.5063 18.6426 15.0337 18.6426C14.5611 18.6426 14.178 19.0257 14.178 19.4983C14.178 19.9709 14.5611 20.3541 15.0337 20.3541Z" fill="#070924"/>
<path d="M22.959 20.3541C23.4316 20.3541 23.8148 19.9709 23.8148 19.4983C23.8148 19.0257 23.4316 18.6426 22.959 18.6426C22.4864 18.6426 22.1033 19.0257 22.1033 19.4983C22.1033 19.9709 22.4864 20.3541 22.959 20.3541Z" fill="#070924"/>
<path d="M16.5902 20.4375L14.462 21.8439" stroke="#070924" stroke-width="0.39" stroke-linecap="round" stroke-linejoin="round"/>
<path d="M21.6125 20.4297L23.4952 21.851" stroke="#070924" stroke-width="0.39" stroke-linecap="round" stroke-linejoin="round"/>
<path d="M16.6641 26.1445C17.3828 26.5429 18.2045 26.7166 19.0229 26.6431C19.8901 26.6627 20.751 26.4925 21.5455 26.1445" stroke="#070924" stroke-width="0.52" stroke-linecap="round" stroke-linejoin="round"/>
<path d="M19.0891 30.7598V31.6899" stroke="#070924" stroke-width="0.39" stroke-linecap="round" stroke-linejoin="round"/>
<path d="M17.2068 17.5434V15.8691L14.1112 15.9287C13.7223 15.937 13.3476 16.0759 13.0471 16.3231L11.8268 17.7443L13.8731 17.4392L17.2068 17.5434Z" fill="#070924"/>
<path d="M20.831 17.5434L20.7938 15.8691L23.8894 15.9287C24.2785 15.9359 24.6537 16.0749 24.9535 16.3231L26.1887 17.7443L24.1349 17.4392L20.831 17.5434Z" fill="#070924"/>
<path opacity="0.19" d="M27.4537 20.3788C27.4537 21.1147 27.2355 21.834 26.8267 22.4459C26.4178 23.0577 25.8367 23.5346 25.1569 23.8162C24.477 24.0978 23.7289 24.1715 23.0072 24.0279C22.2855 23.8844 21.6225 23.53 21.1022 23.0097C20.5819 22.4894 20.2275 21.8264 20.0839 21.1047C19.9404 20.3829 20.0141 19.6349 20.2957 18.955C20.5773 18.2751 21.0542 17.6941 21.666 17.2852C22.2779 16.8764 22.9972 16.6582 23.7331 16.6582C24.7198 16.6582 25.6662 17.0502 26.3639 17.7479C27.0617 18.4457 27.4537 19.3921 27.4537 20.3788Z" fill="#FFF8E8"/>
<path opacity="0.19" d="M18.3308 20.3788C18.3308 21.1147 18.1126 21.834 17.7037 22.4459C17.2949 23.0577 16.7138 23.5346 16.034 23.8162C15.3541 24.0978 14.606 24.1715 13.8843 24.0279C13.1626 23.8844 12.4996 23.53 11.9793 23.0097C11.4589 22.4894 11.1046 21.8264 10.961 21.1047C10.8175 20.3829 10.8911 19.6349 11.1727 18.955C11.4543 18.2751 11.9312 17.6941 12.5431 17.2852C13.1549 16.8764 13.8743 16.6582 14.6101 16.6582C15.5969 16.6582 16.5433 17.0502 17.241 17.7479C17.9388 18.4457 18.3308 19.3921 18.3308 20.3788Z" fill="#FFF8E8"/>
<path d="M18.3308 20.3788C18.3308 21.1147 18.1126 21.834 17.7037 22.4459C17.2949 23.0577 16.7138 23.5346 16.034 23.8162C15.3541 24.0978 14.606 24.1715 13.8843 24.0279C13.1626 23.8844 12.4996 23.53 11.9793 23.0097C11.4589 22.4894 11.1046 21.8264 10.961 21.1047C10.8175 20.3829 10.8911 19.6349 11.1727 18.955C11.4543 18.2751 11.9312 17.6941 12.5431 17.2852C13.1549 16.8764 13.8743 16.6582 14.6101 16.6582C15.5969 16.6582 16.5433 17.0502 17.241 17.7479C17.9388 18.4457 18.3308 19.3921 18.3308 20.3788Z" stroke="#1A1A1A" stroke-width="0.33" stroke-linecap="round" stroke-linejoin="round"/>
<path d="M27.4537 20.3788C27.4537 21.1147 27.2355 21.834 26.8267 22.4459C26.4178 23.0577 25.8367 23.5346 25.1569 23.8162C24.477 24.0978 23.7289 24.1715 23.0072 24.0279C22.2855 23.8844 21.6225 23.53 21.1022 23.0097C20.5819 22.4894 20.2275 21.8264 20.0839 21.1047C19.9404 20.3829 20.0141 19.6349 20.2957 18.955C20.5773 18.2751 21.0542 17.6941 21.666 17.2852C22.2779 16.8764 22.9972 16.6582 23.7331 16.6582C24.7198 16.6582 25.6662 17.0502 26.3639 17.7479C27.0617 18.4457 27.4537 19.3921 27.4537 20.3788V20.3788Z" stroke="#1A1A1A" stroke-width="0.33" stroke-linecap="round" stroke-linejoin="round"/>
<path d="M18.3318 20.3766C18.5572 20.1553 18.8605 20.0312 19.1764 20.0312C19.4923 20.0312 19.7955 20.1553 20.0209 20.3766" stroke="#1A1A1A" stroke-width="0.33" stroke-linecap="round" stroke-linejoin="round"/>
<path d="M10.9257 20.3789H10.3081" stroke="#1A1A1A" stroke-width="0.33" stroke-miterlimit="10"/>
<path d="M28.1523 20.3789H27.5347" stroke="#1A1A1A" stroke-width="0.33" stroke-miterlimit="10"/>
</g>
</svg>
